<svg width="136" height="45" viewBox="0 0 136 45" fill="none" xmlns="http://www.w3.org/2000/svg">
<path d="M101.306 12.8175C101.306 16.7362 102.583 18.2287 105.009 18.2287C107.435 18.2287 108.713 16.7362 108.713 12.8175V12.4429C108.713 16.3677 107.435 17.854 105.009 17.854C102.583 17.854 101.306 16.3677 101.306 12.4429V12.8175Z" fill="#A154A1"/>
<path d="M122.664 15.532C123.036 15.5893 123.392 15.7218 123.711 15.9215C124.029 16.1212 124.303 16.3837 124.516 16.6929C124.985 17.226 125.56 17.6563 126.205 17.9565C126.85 18.2568 127.551 18.4205 128.263 18.4372C130.01 18.4372 131.176 17.6879 131.176 16.1954C131.176 16.1278 131.176 16.0603 131.176 15.9927C131.09 17.3747 129.942 18.0626 128.269 18.0626C127.557 18.047 126.857 17.8844 126.212 17.5852C125.567 17.286 124.991 16.8566 124.522 16.3244C124.31 16.0144 124.036 15.7513 123.718 15.5516C123.399 15.3518 123.042 15.2197 122.67 15.1635C122.414 15.1579 122.159 15.2054 121.922 15.3029C121.685 15.4005 121.47 15.5459 121.293 15.7301C121.115 15.9144 120.978 16.1333 120.89 16.373C120.802 16.6128 120.765 16.8681 120.781 17.1228C120.778 17.1781 120.778 17.2334 120.781 17.2887C120.787 17.0497 120.84 16.8141 120.938 16.5958C121.036 16.3776 121.177 16.1809 121.352 16.0174C121.527 15.8538 121.734 15.7267 121.959 15.6434C122.184 15.56 122.424 15.5222 122.664 15.532Z" fill="#A154A1"/>
<path d="M79.9531 16.2873C79.9531 16.3549 79.9531 16.4286 79.9531 16.5023C79.9641 16.2369 80.0299 15.9766 80.1465 15.7376C80.263 15.4987 80.4278 15.2861 80.6305 15.1133C80.8331 14.9404 81.0694 14.8109 81.3246 14.7329C81.5798 14.6548 81.8484 14.6299 82.1136 14.6596C84.5026 14.8501 83.0581 18.3879 86.4347 18.3449C88.4039 18.3449 89.2682 17.1165 89.2682 14.6166V14.0024C89.2682 16.5146 88.4039 17.9457 86.4347 17.9764C83.0766 18.0316 84.5211 14.4938 82.1136 14.2911C81.8359 14.2621 81.555 14.2925 81.2901 14.3804C81.0251 14.4683 80.7821 14.6116 80.5775 14.8007C80.3728 14.9898 80.2112 15.2203 80.1035 15.4767C79.9958 15.7331 79.9445 16.0095 79.9531 16.2873Z" fill="#A154A1"/>
<path d="M55.8724 18.3819C58.3724 18.3819 59.6749 17.522 59.6749 15.9251C59.6749 15.8391 59.6749 15.7654 59.6749 15.6855C59.6009 17.1719 58.3045 17.9827 55.8785 17.9827H51.792V18.3574L55.8724 18.3819Z" fill="#A154A1"/>
<path d="M105.029 21.7477C100.14 21.7477 97.3061 18.5784 97.3061 12.7496V2.73184C97.3061 1.30073 98.1148 0.440853 99.3062 0.440853C100.498 0.440853 101.306 1.30073 101.306 2.73184V12.4425C101.306 16.3672 102.584 17.8536 105.01 17.8536C107.436 17.8536 108.714 16.3672 108.714 12.4425V2.73184C108.714 1.30073 109.541 0.440853 110.708 0.440853C111.874 0.440853 112.708 1.30073 112.708 2.73184V12.7496C112.745 18.5784 109.911 21.7477 105.029 21.7477ZM60.126 10.5507C60.8864 10.114 61.5196 9.488 61.9633 8.73421C62.407 7.98042 62.6461 7.12476 62.657 6.25125C62.657 2.82397 60.2371 0.391706 55.3543 0.391706H49.7986C49.5324 0.369799 49.2647 0.405414 49.0138 0.496092C48.7628 0.58677 48.5345 0.730378 48.3445 0.917066C48.1545 1.10375 48.0074 1.32909 47.9131 1.57767C47.8189 1.82624 47.7798 2.09216 47.7985 2.35718V19.7638C47.7868 20.0269 47.8307 20.2894 47.9275 20.5345C48.0243 20.7795 48.1718 21.0016 48.3603 21.1863C48.5489 21.371 48.7744 21.5143 49.0221 21.6068C49.2699 21.6992 49.5344 21.7389 49.7986 21.7231L55.3234 21.7784C61.6569 21.8337 63.7372 19.125 63.7372 15.8083C63.7471 14.6812 63.4049 13.5789 62.758 12.6536C62.1112 11.7283 61.1915 11.0257 60.126 10.6428C60.1233 10.6371 60.1219 10.6308 60.1219 10.6244C60.1219 10.618 60.1233 10.6117 60.126 10.606C60.1204 10.5978 60.1175 10.5882 60.1175 10.5783C60.1175 10.5685 60.1204 10.5589 60.126 10.5507ZM73.4536 8.91691L68.9843 1.54642C68.8325 1.20068 68.5844 0.905365 68.2694 0.695323C67.9544 0.485281 67.5856 0.36928 67.2065 0.361003C66.9545 0.343543 66.7016 0.376362 66.4626 0.457535C66.2236 0.538708 66.0033 0.666587 65.8147 0.833674C65.6261 1.00076 65.4729 1.20369 65.3642 1.43051C65.2555 1.65733 65.1935 1.90346 65.1817 2.15448C65.1851 2.73958 65.3682 3.30967 65.7064 3.78827L71.4535 12.9584V19.5058C71.4535 20.9431 72.3733 21.7968 73.4289 21.7968C74.6203 21.7968 75.4536 20.9431 75.4536 19.5058V12.9461L81.2007 3.776C81.5373 3.30309 81.7223 2.74002 81.7316 2.16063C81.7199 1.90906 81.6577 1.66237 81.5486 1.43512C81.4395 1.20787 81.2858 1.00467 81.0965 0.837497C80.9072 0.670327 80.6861 0.542573 80.4464 0.46179C80.2067 0.381007 79.9531 0.348816 79.7007 0.367132C79.3217 0.376151 78.9532 0.492456 78.6384 0.702408C78.3235 0.91236 78.0753 1.20727 77.9228 1.55257L73.4536 8.91691ZM117.085 7.73763C117.385 7.73111 117.677 7.636 117.923 7.46434C118.169 7.29267 118.359 7.05219 118.467 6.77333C119.047 5.42042 119.404 3.98303 119.523 2.51686C119.523 1.19017 118.906 0.361003 117.473 0.361003C116.041 0.361003 115.387 1.35601 115.387 3.09422V4.67273C115.387 6.65663 115.942 7.7622 117.085 7.7622V7.73763ZM79.9538 16.2874C79.9538 18.1914 81.6452 21.7846 86.312 21.7846C90.9788 21.7846 93.2566 18.8057 93.2566 13.8858V2.73184C93.2566 1.30073 92.4233 0.440853 91.2566 0.440853C90.0899 0.440853 89.2565 1.30073 89.2565 2.73184V13.9657C89.2565 16.4778 88.3923 17.9089 86.4231 17.9396C83.065 17.9949 84.5095 14.4571 82.102 14.2544C81.822 14.2267 81.5392 14.2594 81.273 14.3503C81.0069 14.4411 80.7635 14.5881 80.5596 14.7811C80.3557 14.974 80.196 15.2085 80.0915 15.4685C79.9869 15.7284 79.94 16.0077 79.9538 16.2874ZM56.6753 8.70194C55.3728 8.95376 54.5394 9.47584 54.5394 10.7227C54.5394 11.9695 55.3419 12.682 56.6506 12.8478C58.8976 13.0997 59.6754 13.8736 59.6754 15.5811C59.6754 17.1596 58.3729 18.0379 55.8728 18.0379H51.7863V4.00325H56.2062C56.5402 3.96932 56.8777 4.00931 57.1944 4.12033C57.5111 4.23135 57.7992 4.41065 58.0381 4.64542C58.277 4.8802 58.4608 5.16464 58.5763 5.47836C58.6918 5.79207 58.7362 6.12731 58.7062 6.46008C58.7062 7.81134 57.9284 8.47469 56.6753 8.69581V8.70194ZM124.529 16.3304C124.317 16.0204 124.044 15.7573 123.725 15.5576C123.406 15.3578 123.05 15.2257 122.677 15.1695C122.421 15.1639 122.166 15.2114 121.929 15.3089C121.692 15.4065 121.478 15.552 121.3 15.7362C121.122 15.9204 120.985 16.1393 120.897 16.379C120.809 16.6188 120.772 16.8741 120.788 17.1289C120.827 17.7872 121.093 18.4121 121.541 18.8978C122.369 19.8806 123.41 20.663 124.587 21.1855C125.763 21.7081 127.044 21.9571 128.332 21.9135C132.085 21.9135 135.221 19.813 135.221 16.054C135.221 8.73265 125.449 9.45127 125.449 6.18983C125.449 4.91842 126.307 4.1998 127.751 4.1998C128.698 4.1498 129.632 4.43484 130.387 5.00441C131.11 5.5572 131.665 6.63206 132.857 6.63206C133.09 6.64871 133.325 6.61883 133.548 6.54415C133.77 6.46947 133.975 6.35149 134.151 6.1971C134.326 6.04272 134.47 5.85501 134.572 5.64496C134.674 5.4349 134.733 5.2067 134.746 4.97369C134.746 3.53644 133.301 2.18519 132.048 1.46657C130.731 0.726419 129.239 0.352983 127.727 0.385558C124.566 0.440836 121.455 2.15448 121.455 6.2451C121.455 12.8478 131.227 11.687 131.227 15.8329C131.227 17.3254 130.06 18.0686 128.313 18.0686C127.595 18.0573 126.887 17.8963 126.235 17.5958C125.583 17.2953 125.002 16.8622 124.529 16.3243V16.3304Z" fill="#823589"/>
<path d="M99.3057 0.815087C100.472 0.815087 101.306 1.66884 101.306 3.10609V2.73141C101.306 1.30031 100.472 0.44043 99.3057 0.44043C98.139 0.44043 97.3057 1.30031 97.3057 2.73141V3.10609C97.3057 1.66884 98.1143 0.815087 99.3057 0.815087Z" fill="#A154A1"/>
<path d="M125.424 6.3501C125.424 6.41766 125.424 6.48522 125.424 6.55278C125.424 9.78351 135.011 9.11403 135.19 16.2143C135.193 16.159 135.193 16.1037 135.19 16.0484C135.19 8.84991 125.745 9.42114 125.424 6.3501Z" fill="#A154A1"/>
<path d="M67.2064 0.717272C67.586 0.726824 67.955 0.844048 68.2699 1.05513C68.5849 1.26622 68.8327 1.56239 68.9842 1.90884L73.4535 9.31005L77.9227 1.90884C78.0749 1.56284 78.3229 1.26707 78.6377 1.05607C78.9525 0.845075 79.3211 0.727563 79.7006 0.717272C80.183 0.686382 80.6593 0.83832 81.0338 1.14254C81.4082 1.44676 81.6531 1.88072 81.7192 2.35721C81.7192 2.28965 81.7192 2.21594 81.7192 2.14224C81.7075 1.89067 81.6452 1.64398 81.5362 1.41673C81.4271 1.18948 81.2733 0.986279 81.084 0.819109C80.8947 0.651938 80.6737 0.524184 80.434 0.443401C80.1943 0.362618 79.9407 0.330427 79.6882 0.348743C79.3093 0.357762 78.9408 0.474067 78.6259 0.68402C78.3111 0.893972 78.0629 1.18889 77.9104 1.53418L73.4535 8.91695L68.9842 1.54646C68.8324 1.20072 68.5843 0.905402 68.2693 0.69536C67.9543 0.485318 67.5855 0.369317 67.2064 0.361039C66.9544 0.343579 66.7015 0.376399 66.4625 0.457572C66.2235 0.538744 66.0032 0.666623 65.8146 0.83371C65.626 1.0008 65.4728 1.20372 65.3641 1.43054C65.2554 1.65736 65.1934 1.9035 65.1816 2.15452C65.1816 2.22822 65.1816 2.30193 65.1816 2.36949C65.2449 1.88963 65.4894 1.45175 65.8655 1.14484C66.2416 0.837943 66.7211 0.685061 67.2064 0.717272Z" fill="#A154A1"/>
<path d="M127.69 0.753574C129.201 0.719432 130.693 1.09071 132.011 1.82844C133.208 2.51635 134.579 3.78777 134.696 5.15745C134.699 5.09403 134.699 5.03047 134.696 4.96705C134.696 3.5298 133.252 2.17853 131.998 1.45991C130.682 0.719758 129.189 0.346341 127.677 0.378916C124.517 0.434195 121.406 2.14784 121.406 6.23846C121.406 6.29988 121.406 6.3613 121.406 6.42887C121.517 2.47337 124.572 0.808852 127.69 0.753574Z" fill="#A154A1"/>
<path d="M110.744 0.44043C109.577 0.44043 108.75 1.30031 108.75 2.73141V3.10609C108.75 1.66884 109.577 0.815087 110.744 0.815087C111.911 0.815087 112.744 1.66884 112.744 3.10609V2.73141C112.744 1.30031 111.942 0.44043 110.744 0.44043Z" fill="#A154A1"/>
<path d="M117.473 0.38623C115.998 0.441509 115.387 1.38125 115.387 3.11946V3.49414C115.387 1.74979 116.004 0.816186 117.473 0.760907C118.844 0.760907 119.461 1.51025 119.523 2.72638V2.54211C119.523 1.21542 118.912 0.38623 117.473 0.38623Z" fill="#A154A1"/>
<path d="M91.2562 0.44043C90.0216 0.44043 89.2561 1.30031 89.2561 2.73141V3.10609C89.2561 1.66884 90.003 0.815087 91.2562 0.815087C92.5093 0.815087 93.2562 1.66884 93.2562 3.10609V2.73141C93.2562 1.30031 92.4229 0.44043 91.2562 0.44043Z" fill="#A154A1"/>
<path d="M49.8164 0.753981H55.3722C60.1563 0.753981 62.5699 3.08184 62.6687 6.39242C62.6687 6.34329 62.6687 6.28801 62.6687 6.23887C62.6687 2.81159 60.2489 0.379323 55.366 0.379323H49.8103C49.5442 0.357416 49.2765 0.393012 49.0255 0.48369C48.7745 0.574369 48.5462 0.717977 48.3562 0.904665C48.1663 1.09135 48.0191 1.31671 47.9249 1.56528C47.8306 1.81386 47.7915 2.07976 47.8102 2.34478V2.71331C47.7923 2.44822 47.8323 2.18242 47.9273 1.93413C48.0223 1.68584 48.1702 1.46095 48.3607 1.27484C48.5513 1.08874 48.78 0.945832 49.0313 0.85593C49.2826 0.766028 49.5504 0.731244 49.8164 0.753981Z" fill="#A154A1"/>
<path d="M56.6749 8.69548C55.3724 8.94731 54.5391 9.46937 54.5391 10.7162C54.5391 10.7776 54.5391 10.8452 54.5391 10.9066C54.6193 9.78876 55.428 9.30353 56.6687 9.06399C57.9095 8.82445 58.6997 8.17954 58.6997 6.87741C58.6997 6.81599 58.6997 6.74843 58.6997 6.68701C58.6256 7.87243 57.8663 8.48665 56.6749 8.69548Z" fill="#A154A1"/>
<path d="M60.1249 10.6306C60.1221 10.6249 60.1207 10.6186 60.1207 10.6122C60.1207 10.6058 60.1221 10.5995 60.1249 10.5938C60.1216 10.5871 60.1199 10.5797 60.1199 10.5723C60.1199 10.5648 60.1216 10.5575 60.1249 10.5508L59.9026 10.7228C59.8847 10.733 59.8697 10.7477 59.8593 10.7655C59.849 10.7833 59.8435 10.8035 59.8435 10.8241C59.8435 10.8447 59.849 10.8649 59.8593 10.8827C59.8697 10.9005 59.8847 10.9152 59.9026 10.9254L60.094 11.0114C61.1381 11.3852 62.0426 12.067 62.6868 12.9659C63.331 13.8648 63.6841 14.9379 63.699 16.0418C63.699 15.962 63.699 15.8821 63.699 15.8022C63.6977 15.202 63.604 14.6054 63.4212 14.0333C63.1568 13.26 62.7244 12.5542 62.1546 11.966C61.5849 11.3779 60.8918 10.922 60.1249 10.6306Z" fill="#A154A1"/>
<path d="M25.2555 9.66682C25.1873 9.59288 25.1192 9.51894 25.0449 9.45117C25.1192 9.51894 25.1873 9.59288 25.2555 9.66682Z" fill="#823589"/>
<path d="M11.8091 10.5628L16.8648 9.11328L11.8091 10.5628C11.647 10.605 11.4953 10.6795 11.3632 10.7819C11.231 10.8842 11.1212 11.0123 11.0403 11.1582C10.9595 11.3042 10.9093 11.465 10.8929 11.6308C10.8765 11.7966 10.8942 11.9641 10.9448 12.1229C10.8942 11.9641 10.8765 11.7966 10.8929 11.6308C10.9093 11.465 10.9595 11.3042 11.0403 11.1582C11.1212 11.0123 11.231 10.8842 11.3632 10.7819C11.4953 10.6795 11.647 10.605 11.8091 10.5628Z" fill="#823589"/>
<path d="M25.0076 9.40853C24.3566 8.78601 23.5525 8.34481 22.6759 8.1292C21.7994 7.91359 20.8812 7.93114 20.0137 8.18011C20.8814 7.9324 21.7992 7.91548 22.6755 8.13104C23.5518 8.34659 24.3559 8.78708 25.0076 9.40853Z" fill="#823589"/>
<path d="M38.4154 19.9296H2.38347C1.75807 19.9296 1.15828 19.6825 0.71605 19.2424C0.273822 18.8024 0.0253906 18.2056 0.0253906 17.5834V23.6579C0.0253885 23.0351 0.273622 22.4376 0.715674 21.9967C1.15773 21.5557 1.7575 21.3071 2.38347 21.3055H38.4154C39.0414 21.3071 39.6412 21.5557 40.0832 21.9967C40.5253 22.4376 40.7735 23.0351 40.7735 23.6579V17.5649C40.7759 17.8746 40.7168 18.1817 40.5994 18.4685C40.4819 18.7553 40.3086 19.0161 40.0894 19.2359C39.8702 19.4558 39.6094 19.6302 39.3221 19.7493C39.0348 19.8684 38.7266 19.9297 38.4154 19.9296Z" fill="#823589"/>
<path d="M36.8221 0.354985H3.95074C3.43169 0.354176 2.91758 0.455306 2.43789 0.652567C1.95819 0.849828 1.52236 1.13934 1.15534 1.50453C0.788315 1.86971 0.497341 2.30338 0.299086 2.78066C0.100831 3.25795 -0.000808079 3.76947 4.838e-06 4.28591V17.5835C4.838e-06 18.2058 0.248436 18.8026 0.690665 19.2426C1.13289 19.6826 1.7327 19.9298 2.3581 19.9298H38.39C39.0154 19.9298 39.6152 19.6826 40.0575 19.2426C40.4997 18.8026 40.7481 18.2058 40.7481 17.5835V4.28591C40.7498 3.24711 40.3375 2.25004 39.6015 1.5132C38.8656 0.776364 37.8661 0.359861 36.8221 0.354985Z" fill="#823589"/>
<path d="M36.8221 0.354985H3.95074C3.43169 0.354176 2.91758 0.455306 2.43789 0.652567C1.95819 0.849828 1.52236 1.13934 1.15534 1.50453C0.788315 1.86971 0.497341 2.30338 0.299086 2.78066C0.100831 3.25795 -0.000808079 3.76947 4.838e-06 4.28591V17.5835C4.838e-06 18.2058 0.248436 18.8026 0.690665 19.2426C1.13289 19.6826 1.7327 19.9298 2.3581 19.9298H38.39C39.0154 19.9298 39.6152 19.6826 40.0575 19.2426C40.4997 18.8026 40.7481 18.2058 40.7481 17.5835V4.28591C40.7498 3.24711 40.3375 2.25004 39.6015 1.5132C38.8656 0.776364 37.8661 0.359861 36.8221 0.354985Z" fill="url(#paint0_radial_778_6548)"/>
<path d="M38.4154 21.3232H2.38348C1.7575 21.3249 1.15773 21.5734 0.715678 22.0144C0.273626 22.4554 0.0253933 23.0528 0.0253955 23.6757V36.9671C0.0245825 37.4836 0.126203 37.9951 0.324458 38.4724C0.522713 38.9497 0.813687 39.3833 1.18071 39.7485C1.54773 40.1137 1.98358 40.4032 2.46328 40.6005C2.94297 40.7977 3.45708 40.8989 3.97613 40.898H36.8228C37.3418 40.8989 37.8559 40.7977 38.3356 40.6005C38.8153 40.4032 39.2512 40.1137 39.6182 39.7485C39.9852 39.3833 40.2762 38.9497 40.4744 38.4724C40.6727 37.9951 40.7743 37.4836 40.7735 36.9671V23.6572C40.7686 23.0376 40.5182 22.4449 40.0767 22.0079C39.6352 21.5709 39.0382 21.3248 38.4154 21.3232Z" fill="#823589"/>
<path d="M38.4154 21.3232H2.38348C1.7575 21.3249 1.15773 21.5734 0.715678 22.0144C0.273626 22.4554 0.0253933 23.0528 0.0253955 23.6757V36.9671C0.0245825 37.4836 0.126203 37.9951 0.324458 38.4724C0.522713 38.9497 0.813687 39.3833 1.18071 39.7485C1.54773 40.1137 1.98358 40.4032 2.46328 40.6005C2.94297 40.7977 3.45708 40.8989 3.97613 40.898H36.8228C37.3418 40.8989 37.8559 40.7977 38.3356 40.6005C38.8153 40.4032 39.2512 40.1137 39.6182 39.7485C39.9852 39.3833 40.2762 38.9497 40.4744 38.4724C40.6727 37.9951 40.7743 37.4836 40.7735 36.9671V23.6572C40.7686 23.0376 40.5182 22.4449 40.0767 22.0079C39.6352 21.5709 39.0382 21.3248 38.4154 21.3232Z" fill="url(#paint1_radial_778_6548)"/>
<path d="M36.9023 1.65088H3.89513C3.5579 1.65088 3.22396 1.71696 2.9124 1.84537C2.60083 1.97377 2.31776 2.16198 2.0793 2.39924C1.84084 2.6365 1.65167 2.91818 1.52262 3.22818C1.39356 3.53818 1.32715 3.87043 1.32715 4.20597V37.0477C1.32715 37.7253 1.59771 38.3752 2.0793 38.8544C2.56089 39.3336 3.21406 39.6028 3.89513 39.6028H36.9023C37.5833 39.6028 38.2365 39.3336 38.7181 38.8544C39.1997 38.3752 39.4703 37.7253 39.4703 37.0477V4.20597C39.4703 3.52831 39.1997 2.87841 38.7181 2.39924C38.2365 1.92006 37.5833 1.65088 36.9023 1.65088ZM32.9268 25.9674C32.6059 28.8787 29.9638 31.9252 27.1304 32.7236L18.6733 35.1805C18.0283 35.3648 17.3362 35.2872 16.7485 34.9649C16.1607 34.6426 15.7253 34.1017 15.5374 33.4607L9.40145 12.3012C9.21641 11.6602 9.29449 10.9724 9.61853 10.3886C9.94256 9.80481 10.4861 9.37274 11.1299 9.1872L19.5499 6.77337C20.8367 6.4679 22.1828 6.51628 23.4441 6.91333C24.7055 7.31039 25.8345 8.04117 26.7106 9.0275C27.6104 10.1086 28.1713 11.4287 28.3239 12.8241C28.4764 14.2196 28.2138 15.6288 27.5687 16.8771C29.3546 17.5782 30.8529 18.8545 31.8241 20.5023C32.7954 22.1501 33.1837 24.0743 32.9268 25.9674Z" fill="#823589"/>
<path d="M26.0817 17.9889C25.6918 17.9007 25.2955 17.8432 24.8965 17.8169C25.2955 17.8432 25.6918 17.9007 26.0817 17.9889Z" fill="#823589"/>
<path d="M28.3655 18.9832C27.7792 18.5951 27.1385 18.295 26.4643 18.0926L26.0815 17.9882C25.6916 17.9 25.2953 17.8425 24.8963 17.8162C25.0369 17.7009 25.1689 17.5757 25.2914 17.4416L25.3593 17.3679C25.4642 17.2573 25.5568 17.1468 25.6494 17.0362C25.742 16.9256 25.7112 16.9441 25.7482 16.9011C25.7852 16.8581 25.8963 16.6984 25.9643 16.594L26.0754 16.4036C26.1309 16.3114 26.1865 16.2193 26.2359 16.1272L26.3285 15.9122C26.3717 15.8201 26.421 15.7279 26.4581 15.6358C26.479 15.5629 26.5038 15.4912 26.5322 15.4208C26.563 15.3226 26.6001 15.2243 26.6309 15.1199C26.6618 15.0155 26.668 14.9602 26.6865 14.8803C26.705 14.8005 26.7359 14.6899 26.7544 14.5916C26.7729 14.4934 26.7544 14.4135 26.7853 14.3275C26.8161 14.2415 26.8161 14.1433 26.8223 14.0511C26.8285 13.959 26.8223 13.873 26.8223 13.787C26.8223 13.701 26.8223 13.5966 26.8223 13.4984C26.8223 13.4001 26.8223 13.3202 26.8223 13.2281C26.8223 13.136 26.8223 13.0377 26.8223 12.9394C26.8223 12.8411 26.7914 12.7613 26.7791 12.6692C26.7668 12.577 26.7482 12.4788 26.7235 12.3805C26.6988 12.2822 26.6741 12.2024 26.6494 12.1103C26.6248 12.0181 26.6001 11.9199 26.5692 11.8216L26.4581 11.5513C26.421 11.4531 26.3902 11.3609 26.347 11.2688C26.3038 11.1766 26.2482 11.0845 26.1988 10.9985C26.1564 10.904 26.109 10.8117 26.0568 10.7221C26.0075 10.63 25.9396 10.544 25.884 10.458C25.8284 10.372 25.7667 10.2738 25.705 10.1878C25.6432 10.1018 25.5692 10.0219 25.5013 9.93595L25.279 9.6657C25.2111 9.592 25.1432 9.51829 25.0692 9.45073L25.0321 9.40773C24.3761 8.78947 23.5684 8.35345 22.6898 8.14327C21.8112 7.93308 20.8926 7.9561 20.0258 8.21003L16.8899 9.11292L11.8342 10.5624C11.6722 10.6046 11.5205 10.6792 11.3883 10.7815C11.2562 10.8839 11.1463 11.0119 11.0655 11.1579C10.9846 11.3038 10.9345 11.4646 10.9181 11.6304C10.9016 11.7963 10.9193 11.9637 10.97 12.1225L17.822 10.1571C18.7356 9.88891 19.7073 9.887 20.622 10.1515C21.5366 10.4161 22.3559 10.936 22.9827 11.6496C23.4821 12.1829 23.8685 12.8108 24.1189 13.4959C24.3692 14.181 24.4783 14.9092 24.4397 15.6372C24.4011 16.3651 24.2156 17.0778 23.8942 17.7329C23.5728 18.388 23.1222 18.972 22.5691 19.45C24.1092 19.47 25.5905 20.0413 26.7419 21.0593C27.8932 22.0773 28.6374 23.4739 28.8383 24.9933C29.0393 26.5128 28.6834 28.0533 27.8359 29.333C26.9884 30.6127 25.706 31.5458 24.2235 31.9614H24.1432L19.6369 33.2574L26.4272 31.3043C27.6977 30.9394 28.837 30.2213 29.7114 29.2343C30.5857 28.2473 31.1587 27.0325 31.3629 25.7326C31.5671 24.4327 31.3942 23.1018 30.8643 21.8964C30.3344 20.691 29.4697 19.6611 28.3717 18.9279L28.3655 18.9832Z" fill="#4C205B"/>
<path d="M27.5693 16.8649C28.2144 15.6166 28.477 14.2074 28.3245 12.812C28.1719 11.4166 27.611 10.0964 26.7112 9.01534C25.8352 8.029 24.7061 7.29821 23.4447 6.90115C22.1834 6.50409 20.8373 6.45571 19.5505 6.76119L11.1305 9.17504C10.4867 9.36058 9.94318 9.79263 9.61914 10.3764C9.29511 10.9602 9.21703 11.6481 9.40207 12.2891L15.5381 33.4485C15.7259 34.0896 16.1613 34.6304 16.7491 34.9528C17.3368 35.2751 18.0289 35.3526 18.674 35.1683L27.131 32.7115C29.9644 31.9007 32.6065 28.8542 32.9275 25.9552C33.1843 24.0621 32.796 22.138 31.8247 20.4902C30.8535 18.8424 29.3552 17.566 27.5693 16.8649ZM26.4211 31.3602L18.5011 33.6328C18.3392 33.681 18.169 33.6957 18.0011 33.6758C17.8389 33.6557 17.6819 33.6057 17.5381 33.5284C17.3958 33.4483 17.2701 33.3419 17.1677 33.2151C17.0599 33.0853 16.9801 32.9347 16.9332 32.7729L13.2602 20.0957L10.9515 12.1539C10.9008 11.9951 10.8832 11.8277 10.8996 11.6618C10.916 11.496 10.9661 11.3352 11.047 11.1893C11.1278 11.0433 11.2377 10.9153 11.3698 10.8129C11.502 10.7106 11.6537 10.636 11.8157 10.5939L16.8714 9.14432L20.0073 8.24143C20.8749 7.99247 21.793 7.97491 22.6696 8.19052C23.5461 8.40613 24.3503 8.84733 25.0013 9.46985L25.0383 9.51285C25.1124 9.58041 25.1803 9.65412 25.2482 9.72782C25.3285 9.81381 25.3902 9.90594 25.4643 9.99193C25.5384 10.0779 25.6063 10.1578 25.668 10.2438C25.7297 10.3297 25.7853 10.4219 25.847 10.514C25.9087 10.6061 25.9705 10.686 26.0198 10.7781C26.072 10.8677 26.1194 10.96 26.1618 11.0545C26.2112 11.1405 26.2668 11.2326 26.31 11.3248C26.3532 11.4169 26.3841 11.509 26.4211 11.6073L26.5322 11.8775C26.5322 11.9758 26.5878 12.068 26.6125 12.1662C26.6371 12.2645 26.668 12.3443 26.6865 12.4365C26.705 12.5286 26.7236 12.6269 26.7421 12.7252C26.7606 12.8234 26.7791 12.9094 26.7853 12.9954C26.7915 13.0814 26.7853 13.1919 26.7853 13.2841C26.7853 13.3762 26.7853 13.4683 26.7853 13.5543C26.7853 13.6403 26.7853 13.7447 26.7853 13.843C26.7853 13.9413 26.7853 14.0211 26.7853 14.1071C26.7853 14.1931 26.7853 14.2914 26.7483 14.3835C26.7112 14.4756 26.7483 14.5616 26.7174 14.6476C26.6865 14.7336 26.6742 14.838 26.6495 14.9363C26.6248 15.0346 26.6186 15.096 26.5939 15.1758C26.5692 15.2557 26.526 15.3785 26.4952 15.4768C26.4668 15.5471 26.4421 15.6189 26.4211 15.6918C26.3841 15.7839 26.3347 15.876 26.2915 15.9682L26.1989 16.1831C26.1495 16.2753 26.0939 16.3674 26.0384 16.4595L25.9273 16.6499C25.8594 16.7544 25.7853 16.8526 25.7112 16.957C25.6371 17.0615 25.6495 17.0492 25.6124 17.0922C25.5754 17.1352 25.4272 17.3133 25.3223 17.4238L25.2544 17.4975C25.1319 17.6317 24.9999 17.7569 24.8593 17.8722C25.2583 17.8985 25.6546 17.956 26.0445 18.0442L26.4273 18.1486C27.1015 18.351 27.7422 18.6511 28.3286 19.0392C29.4265 19.7724 30.2912 20.8023 30.8211 22.0077C31.351 23.2131 31.524 24.544 31.3197 25.8438C31.1155 27.1437 30.5425 28.3586 29.6682 29.3456C28.7939 30.3326 27.6545 31.0507 26.3841 31.4155L26.4211 31.3602Z" fill="white"/>
<path d="M16.9386 32.7722L13.2595 20.1011L16.9386 32.7722Z" fill="white"/>
<path d="M25.2607 9.67188L25.4837 9.94297C25.4032 9.85055 25.3412 9.75813 25.2607 9.67188Z" fill="white"/>
<path d="M20.0073 8.21045L16.8652 9.11333L20.0073 8.21045Z" fill="white"/>
<path d="M18.5 33.6319L26.42 31.3594L19.6235 33.3126L18.5 33.6319Z" fill="white"/>
<path d="M10.9451 12.1221L10.958 12.154L10.9451 12.1221Z" fill="white"/>
<path d="M24.8965 17.8167C25.0371 17.7013 25.1692 17.5761 25.2917 17.4419C25.1692 17.5761 25.0371 17.7013 24.8965 17.8167Z" fill="white"/>
<path d="M16.9141 32.7729C16.961 32.9348 17.0408 33.0853 17.1486 33.2152C17.251 33.342 17.3767 33.4483 17.519 33.5284C17.6628 33.6058 17.8198 33.6558 17.982 33.6758C18.1499 33.6957 18.3201 33.6811 18.482 33.6328C18.3223 33.6789 18.1551 33.6932 17.9898 33.6749C17.8246 33.6566 17.6646 33.606 17.519 33.5262C17.3733 33.4463 17.245 33.3387 17.1412 33.2095C17.0374 33.0802 16.9602 32.9319 16.9141 32.7729Z" fill="#823589"/>
<path d="M24.1246 32.0177H24.2049C25.6874 31.602 26.9698 30.6689 27.8173 29.3892C28.6648 28.1096 29.0207 26.569 28.8198 25.0496C28.6189 23.5301 27.8746 22.1336 26.7233 21.1156C25.572 20.0976 24.0906 19.5262 22.5505 19.5062C23.1036 19.0282 23.5543 18.4442 23.8757 17.7891C24.197 17.1341 24.3826 16.4213 24.4212 15.6934C24.4598 14.9654 24.3506 14.2372 24.1003 13.5521C23.85 12.867 23.4636 12.2391 22.9641 11.7058C22.3373 10.9922 21.5181 10.4723 20.6034 10.2077C19.6888 9.94321 18.7171 9.94512 17.8035 10.2133L10.9514 12.1787L16.9146 32.7731C16.9607 32.9321 17.0379 33.0804 17.1417 33.2096C17.2455 33.3389 17.3738 33.4465 17.5194 33.5264C17.6651 33.6062 17.8251 33.6567 17.9903 33.675C18.1556 33.6933 18.3228 33.6791 18.4825 33.633L19.5998 33.3136L24.1246 32.0177Z" fill="#823589"/>
<path d="M10.958 12.1538L13.2605 20.1017L16.9397 32.7728L10.958 12.1538Z" fill="#823589"/>
<path d="M49.23 40.4833H55.9503C56.7274 40.4833 57.3675 39.8432 57.3675 39.0432C57.3675 38.266 56.7274 37.626 55.9503 37.626H50.7615V26.6998C50.7615 25.8084 50.0529 25.0769 49.1614 25.0769C48.2471 25.0769 47.5156 25.8084 47.5156 26.6998V38.7461C47.5156 39.8661 48.1328 40.4833 49.23 40.4833Z" fill="#6F6F6F"/>
<path d="M58.4577 34.9516C58.4577 38.4946 60.9949 40.7576 64.3551 40.7576C65.6351 40.7576 66.9152 40.4604 67.9895 39.8432C68.3552 39.6375 68.6067 39.2718 68.6067 38.8375C68.6067 38.2203 68.0809 37.6946 67.4638 37.6946C67.258 37.6946 67.0752 37.7403 66.9152 37.8317C66.2294 38.2203 65.4065 38.4489 64.6751 38.4489C62.8007 38.4489 61.6807 37.2831 61.4978 35.8888H67.9895C69.0867 35.8888 69.7039 35.4774 69.7039 34.5173C69.7039 31.6372 67.4638 29.1685 64.1722 29.1685C60.8121 29.1685 58.4577 31.7515 58.4577 34.9516ZM64.1722 31.4772C66.0923 31.4772 66.8237 32.8715 66.8923 33.923H61.4521C61.5892 32.8258 62.3664 31.4772 64.1722 31.4772Z" fill="#6F6F6F"/>
<path d="M76.5095 29.1685C75.0923 29.1685 73.6751 29.5342 72.4179 30.3571C72.1207 30.54 71.8922 30.9057 71.8922 31.3172C71.8922 31.9343 72.395 32.4372 72.9894 32.4372C73.1951 32.4372 73.4008 32.3687 73.5608 32.2772C74.3608 31.7743 75.138 31.5458 76.0066 31.5458C77.4695 31.5458 78.4296 32.2772 78.4296 33.3973V34.9288C77.6981 34.0373 76.3952 33.5801 74.9323 33.5801C73.1722 33.5801 71.0921 34.5173 71.0921 37.1003C71.0921 39.5689 73.1722 40.7576 74.9323 40.7576C76.3723 40.7576 77.6753 40.209 78.4067 39.3404C78.4982 40.0947 79.1382 40.6433 79.8696 40.6433C80.6925 40.6433 81.3326 39.9575 81.3326 39.1346V33.3515C81.3326 30.1743 79.0239 29.1685 76.5095 29.1685ZM76.0981 38.7918C74.9551 38.7918 74.018 38.1975 74.018 37.1688C74.018 36.0945 74.9551 35.5002 76.0981 35.5002C77.0352 35.5002 77.9496 35.8202 78.4296 36.4602V37.8317C77.9496 38.4718 77.0352 38.7918 76.0981 38.7918Z" fill="#6F6F6F"/>
<path d="M89.6522 29.2371C89.4007 29.2371 89.195 29.3057 88.9207 29.42C88.2578 29.6714 87.595 30.2886 87.1149 30.9514L87.1378 30.7457C87.1378 29.9228 86.4749 29.2828 85.652 29.2828C84.852 29.2828 84.212 29.9457 84.212 30.7686V39.1804C84.212 39.9804 84.852 40.6433 85.6749 40.6433C86.4521 40.6433 87.1149 39.9804 87.1149 39.1804V33.1915C87.595 32.4829 88.7379 32.0715 89.4922 31.9801C90.4065 31.8429 90.8637 31.2486 90.8637 30.54C90.8637 29.8314 90.4294 29.2371 89.6522 29.2371Z" fill="#6F6F6F"/>
<path d="M99.2149 29.1685C97.4091 29.1685 96.0833 30.0371 95.3747 30.8372V30.7457C95.3747 29.9228 94.7119 29.26 93.889 29.26C93.0889 29.26 92.4489 29.9228 92.4489 30.7457V39.1804C92.4489 39.9804 93.0889 40.6433 93.9118 40.6433C94.689 40.6433 95.3519 39.9804 95.3519 39.1804V33.0544C95.8319 32.3915 96.7234 31.7515 97.8663 31.7515C99.1006 31.7515 99.9006 32.2772 99.9006 33.8087V39.1804C99.9006 39.9804 100.564 40.6433 101.341 40.6433C102.164 40.6433 102.804 39.9804 102.804 39.1804V32.6887C102.804 30.54 101.638 29.1685 99.2149 29.1685Z" fill="#6F6F6F"/>
<path d="M107.126 27.637C108.086 27.637 108.863 26.8599 108.863 25.8998C108.863 24.9398 108.086 24.1626 107.126 24.1626C106.189 24.1626 105.389 24.9398 105.389 25.8998C105.389 26.8599 106.189 27.637 107.126 27.637ZM107.126 40.6433C107.926 40.6433 108.589 39.9804 108.589 39.1804V30.7457C108.589 29.9457 107.926 29.2828 107.149 29.2828C106.326 29.2828 105.686 29.9457 105.686 30.7457V39.1804C105.686 39.9804 106.326 40.6433 107.126 40.6433Z" fill="#6F6F6F"/>
<path d="M118.234 29.1685C116.428 29.1685 115.102 30.0371 114.393 30.8372V30.7457C114.393 29.9228 113.73 29.26 112.908 29.26C112.108 29.26 111.468 29.9228 111.468 30.7457V39.1804C111.468 39.9804 112.108 40.6433 112.93 40.6433C113.708 40.6433 114.371 39.9804 114.371 39.1804V33.0544C114.851 32.3915 115.742 31.7515 116.885 31.7515C118.119 31.7515 118.919 32.2772 118.919 33.8087V39.1804C118.919 39.9804 119.582 40.6433 120.359 40.6433C121.182 40.6433 121.822 39.9804 121.822 39.1804V32.6887C121.822 30.54 120.656 29.1685 118.234 29.1685Z" fill="#6F6F6F"/>
<path d="M133.757 29.2828C132.956 29.2828 132.271 29.9 132.271 30.6772V30.86C131.356 29.7171 130.168 29.1685 128.865 29.1685C126.076 29.1685 123.996 31.18 123.996 34.7916C123.996 38.4718 126.099 40.4147 128.865 40.4147C130.214 40.4147 131.379 39.7975 132.271 38.7003V39.7975C132.271 41.969 130.625 42.5862 129.231 42.5862C128.248 42.5862 127.356 42.3805 126.579 41.8776C126.396 41.7633 126.168 41.6947 125.962 41.6947C125.299 41.6947 124.75 42.2433 124.75 42.9062C124.75 43.3405 125.002 43.7291 125.345 43.9348C126.533 44.6892 127.745 44.9635 129.231 44.9635C131.951 44.9635 135.197 43.9348 135.197 39.729V30.7457C135.197 29.9457 134.534 29.2828 133.757 29.2828ZM129.779 37.8317C128.133 37.8317 126.991 36.6888 126.991 34.7916C126.991 32.8944 128.133 31.7515 129.779 31.7515C130.739 31.7515 131.791 32.2772 132.271 33.0087V36.5745C131.791 37.2831 130.739 37.8317 129.779 37.8317Z" fill="#6F6F6F"/>
<defs>
<radialGradient id="paint0_radial_778_6548" cx="0" cy="0" r="1" gradientUnits="userSpaceOnUse" gradientTransform="translate(21.0878 -13.219) rotate(90) scale(24.986 32.1432)">
<stop offset="0.82" stop-color="#A154A1"/>
<stop offset="0.89" stop-color="#823589"/>
</radialGradient>
<radialGradient id="paint1_radial_778_6548" cx="0" cy="0" r="1" gradientUnits="userSpaceOnUse" gradientTransform="translate(18.9543 54.4782) rotate(-90) scale(24.986 32.1432)">
<stop offset="0.82" stop-color="#5F286E"/>
<stop offset="0.89" stop-color="#823589"/>
</radialGradient>
</defs>
</svg>
